<?xml version="1.0" encoding="utf-8"?>
<!-- Generator: Adobe Illustrator 24.2.0, SVG Export Plug-In . SVG Version: 6.00 Build 0)  -->
<svg version="1.1" id="Layer_1" xmlns="http://www.w3.org/2000/svg" xmlns:xlink="http://www.w3.org/1999/xlink" x="0px" y="0px"
	 viewBox="0 0 200 200" style="enable-background:new 0 0 200 200;" xml:space="preserve">
<style type="text/css">
	.st0{fill:url(#SVGID_1_);}
	.st1{fill:url(#SVGID_2_);}
	.st2{fill:url(#SVGID_3_);}
	.st3{fill:#FFFFFF;}
	.st4{fill-rule:evenodd;clip-rule:evenodd;fill:#FFFFFF;}
</style>
<g>
	
		<radialGradient id="SVGID_1_" cx="-853.4008" cy="610.4214" r="3.5714" gradientTransform="matrix(14.5 -21 -21 -14.5 25278.5059 -8945.4805)" gradientUnits="userSpaceOnUse">
		<stop  offset="0" style="stop-color:#B13589"/>
		<stop  offset="0.7931" style="stop-color:#C62F94"/>
		<stop  offset="1" style="stop-color:#8A3AC8"/>
	</radialGradient>
	<path class="st0" d="M71.1,49.8h57.1c11.8,0,21.4,9.6,21.4,21.4v57.1c0,11.8-9.6,21.4-21.4,21.4H71.1c-11.8,0-21.4-9.6-21.4-21.4
		V71.2C49.6,59.5,59.3,49.8,71.1,49.8z"/>
	
		<radialGradient id="SVGID_2_" cx="-859.4965" cy="605.6102" r="3.5714" gradientTransform="matrix(9.5 -20.5 -20.5 -9.5 20661.957 -11712.9736)" gradientUnits="userSpaceOnUse">
		<stop  offset="0" style="stop-color:#E0E8B7"/>
		<stop  offset="0.4447" style="stop-color:#FB8A2E"/>
		<stop  offset="0.7147" style="stop-color:#E2425C"/>
		<stop  offset="1" style="stop-color:#E2425C;stop-opacity:0"/>
	</radialGradient>
	<path class="st1" d="M71.1,49.8h57.1c11.8,0,21.4,9.6,21.4,21.4v57.1c0,11.8-9.6,21.4-21.4,21.4H71.1c-11.8,0-21.4-9.6-21.4-21.4
		V71.2C49.6,59.5,59.3,49.8,71.1,49.8z"/>
	
		<radialGradient id="SVGID_3_" cx="-842.3381" cy="596.5519" r="3.5714" gradientTransform="matrix(38.5 -5.5 -1.1764 -8.2348 33176.0938 333.0025)" gradientUnits="userSpaceOnUse">
		<stop  offset="0.1567" style="stop-color:#406ADC"/>
		<stop  offset="0.4678" style="stop-color:#6A45BE"/>
		<stop  offset="1" style="stop-color:#6A45BE;stop-opacity:0"/>
	</radialGradient>
	<path class="st2" d="M71.1,49.8h57.1c11.8,0,21.4,9.6,21.4,21.4v57.1c0,11.8-9.6,21.4-21.4,21.4H71.1c-11.8,0-21.4-9.6-21.4-21.4
		V71.2C49.6,59.5,59.3,49.8,71.1,49.8z"/>
	<path class="st3" d="M124.6,80.2c0,2.9-2.5,5.4-5.4,5.4c-2.9,0-5.4-2.5-5.4-5.4s2.5-5.4,5.4-5.4C122.1,74.8,124.6,77.3,124.6,80.2z
		"/>
	<path class="st4" d="M99.6,117.7c10,0,17.9-7.9,17.9-17.9S109.6,82,99.6,82s-17.9,7.9-17.9,17.9S89.6,117.7,99.6,117.7z
		 M99.6,110.5c6.1,0,10.7-4.6,10.7-10.7s-4.6-10.7-10.7-10.7s-10.7,4.6-10.7,10.7S93.6,110.5,99.6,110.5z"/>
	<path class="st4" d="M63.9,98.4c0-12.1,0-17.9,2.5-22.5c2.1-3.9,5.4-7.1,9.3-9.3c4.6-2.5,10.7-2.5,22.5-2.5h2.9
		c12.1,0,17.9,0,22.5,2.5c3.9,2.1,7.1,5.4,9.3,9.3c2.5,4.6,2.5,10.7,2.5,22.5v2.9c0,12.1,0,17.9-2.5,22.5c-2.1,3.9-5.4,7.1-9.3,9.3
		c-4.6,2.5-10.7,2.5-22.5,2.5h-2.9c-12.1,0-17.9,0-22.5-2.5c-3.9-2.1-7.1-5.4-9.3-9.3c-2.5-4.6-2.5-10.7-2.5-22.5V98.4z M98.2,71.2
		h2.9c6.1,0,10.4,0,13.6,0.4c3.2,0.4,4.6,0.7,5.7,1.4c2.9,1.4,5,3.6,6.1,6.1c0.7,1.1,1.1,2.9,1.4,5.7c0.4,3.2,0.4,7.5,0.4,13.6v2.9
		c0,6.1,0,10.4-0.4,13.6c-0.4,3.2-0.7,4.6-1.4,5.7c-1.4,2.9-3.6,5-6.1,6.1c-1.1,0.7-2.9,1.1-5.7,1.4c-3.2,0.4-7.5,0.4-13.6,0.4h-2.9
		c-6.1,0-10.4,0-13.6-0.4c-3.2-0.4-4.6-0.7-5.7-1.4c-2.9-1.4-5-3.6-6.1-6.1c-0.7-1.1-1.1-2.9-1.4-5.7c-0.4-3.2-0.4-7.5-0.4-13.6
		v-2.9c0-6.1,0-10.4,0.4-13.6c0.4-3.2,0.7-4.6,1.4-5.7c1.4-2.9,3.6-5,6.1-6.1c1.1-0.7,2.9-1.1,5.7-1.4
		C87.8,71.2,92.1,71.2,98.2,71.2z"/>
</g>
</svg>
